HIERARCHY
ROOT Hips
{
	OFFSET 0.000000 0.000000 0.000000
	CHANNELS 6 Xposition Yposition Zposition Xrotation Yrotation Zrotation
	JOINT LeftUpLeg_virtual
	{
		OFFSET 0.000000 0.000000 0.000000
		CHANNELS 3 Xrotation Yrotation Zrotation
		JOINT LeftUpLeg
		{
			OFFSET 13.026900 -6.336304 -1.092800
			CHANNELS 3 Xrotation Yrotation Zrotation
			JOINT LeftLeg
			{
				OFFSET 0.524474 -46.096886 9.782700
				CHANNELS 3 Xrotation Yrotation Zrotation
				JOINT LeftFoot
				{
					OFFSET -0.524474 -53.427422 -12.948200
					CHANNELS 3 Xrotation Yrotation Zrotation
					JOINT LeftToeBase
					{
						OFFSET 0.192200 -14.009700 16.364100
						CHANNELS 3 Xrotation Yrotation Zrotation
						JOINT LeftToe_End
						{
							OFFSET -1.784700 -0.561700 9.474800
							CHANNELS 3 Xrotation Yrotation Zrotation
							End Site
							{
								OFFSET 0 0 0
							}
						}
					}
				}
			}
		}
	}
	JOINT RightUpLeg_virtual
	{
		OFFSET 0.000000 0.000000 0.000000
		CHANNELS 3 Xrotation Yrotation Zrotation
		JOINT RightUpLeg
		{
			OFFSET -12.883000 -6.336304 -1.092800
			CHANNELS 3 Xrotation Yrotation Zrotation
			JOINT RightLeg
			{
				OFFSET -0.524587 -46.096825 9.782800
				CHANNELS 3 Xrotation Yrotation Zrotation
				JOINT RightFoot
				{
					OFFSET 0.524587 -53.427383 -12.948300
					CHANNELS 3 Xrotation Yrotation Zrotation
					JOINT RightToeBase
					{
						OFFSET -0.192200 -14.009700 16.364100
						CHANNELS 3 Xrotation Yrotation Zrotation
						JOINT RightToe_End
						{
							OFFSET 1.784700 -0.561700 9.474800
							CHANNELS 3 Xrotation Yrotation Zrotation
							End Site
							{
								OFFSET 0 0 0
							}
						}
					}
				}
			}
		}
	}
	JOINT Spine_virtual
	{
		OFFSET 0.000000 0.000000 0.000000
		CHANNELS 3 Xrotation Yrotation Zrotation
		JOINT Spine
		{
			OFFSET 0.072000 7.257294 -0.789700
			CHANNELS 3 Xrotation Yrotation Zrotation
			JOINT Spine1
			{
				OFFSET 0.000000 12.508769 -0.658067
				CHANNELS 3 Xrotation Yrotation Zrotation
				JOINT Spine1_split
				{
					OFFSET 0.000000 12.508769 -0.658067
					CHANNELS 3 Xrotation Yrotation Zrotation
					JOINT Spine2
					{
						OFFSET 0.000000 12.508769 -0.658067
						CHANNELS 3 Xrotation Yrotation Zrotation
						JOINT Neck_virtual
						{
							OFFSET 0.000000 0.000000 0.000000
							CHANNELS 3 Xrotation Yrotation Zrotation
							JOINT Neck
							{
								OFFSET 0.000000 14.033295 7.520400
								CHANNELS 3 Xrotation Yrotation Zrotation
								JOINT Head
								{
									OFFSET 0.000000 8.198502 5.703100
									CHANNELS 3 Xrotation Yrotation Zrotation
									JOINT HeadTop_End
									{
										OFFSET 0.000000 17.760803 13.332701
										CHANNELS 3 Xrotation Yrotation Zrotation
										End Site
										{
											OFFSET 0 0 0
										}
									}
								}
							}
						}
						JOINT LeftShoulder_virtual
						{
							OFFSET 0.000000 0.000000 0.000000
							CHANNELS 3 Xrotation Yrotation Zrotation
							JOINT LeftShoulder
							{
								OFFSET 6.292450 5.785301 -0.669000
								CHANNELS 3 Xrotation Yrotation Zrotation
								JOINT LeftShoulder_split
								{
									OFFSET 6.292450 5.785301 -0.669000
									CHANNELS 3 Xrotation Yrotation Zrotation
									JOINT LeftArm
									{
										OFFSET 13.907140 -6.093903 1.965100
										CHANNELS 3 Xrotation Yrotation Zrotation
										JOINT LeftForeArm
										{
											OFFSET 34.140198 0.000000 0.000000
											CHANNELS 3 Xrotation Yrotation Zrotation
											JOINT LeftHand
											{
												OFFSET 40.960209 0.000000 0.000000
												CHANNELS 3 Xrotation Yrotation Zrotation
												End Site
												{
													OFFSET 0 0 0
												}
											}
										}
									}
								}
							}
						}
						JOINT RightShoulder_virtual
						{
							OFFSET 0.000000 0.000000 0.000000
							CHANNELS 3 Xrotation Yrotation Zrotation
							JOINT RightShoulder
							{
								OFFSET -6.292450 5.785301 -0.669000
								CHANNELS 3 Xrotation Yrotation Zrotation
								JOINT RightShoulder_split
								{
									OFFSET -6.292450 5.785301 -0.669000
									CHANNELS 3 Xrotation Yrotation Zrotation
									JOINT RightArm
									{
										OFFSET -13.907140 -6.093903 1.965100
										CHANNELS 3 Xrotation Yrotation Zrotation
										JOINT RightForeArm
										{
											OFFSET -34.140198 0.000000 0.000000
											CHANNELS 3 Xrotation Yrotation Zrotation
											JOINT RightHand
											{
												OFFSET -40.960209 0.000000 0.000000
												CHANNELS 3 Xrotation Yrotation Zrotation
												End Site
												{
													OFFSET 0 0 0
												}
											}
										}
									}
								}
							}
						}
					}
				}
			}
		}
	}
}
MOTION
Frames: 8
Frame Time: 0.03333333
0.368363 92.276009 -1.458082 0.000000 0.000000 0.000000 4.194071 -49.972236 7.569894 -38.790714 11.860722 20.338463 54.903407 -10.887581 2.851908 -13.777561 -6.435536 -13.733984 -2.489144 -2.413279 0.816163 0.000000 0.000000 0.000000 3.834165 -47.679423 7.855766 -27.912466 -17.822762 -28.158471 53.726097 13.601410 -7.755366 -22.808708 -22.031929 25.364742 2.579184 7.162346 -12.473724 0.000000 0.000000 0.000000 2.399524 -44.129996 6.446075 8.818438 11.071666 -3.287956 -0.910086 1.571459 -0.677655 0.068004 0.372272 0.123226 0.000000 0.000000 0.000000 4.166483 3.018175 -0.005162 -4.686182 12.562081 1.591886 -17.978695 19.573053 -10.491570 0.000000 0.000000 0.000000 2.044104 2.135709 -1.239777 4.103716 7.575328 -3.377729 -1.616371 -7.323212 1.535751 -9.866867 6.416889 -45.889302 170.867441 -48.955603 169.829403 0.000000 0.000000 0.000000 4.559974 2.359740 -0.335134 -4.074318 3.539130 -21.640980 -3.182740 5.145457 5.395882 -46.893801 17.120395 64.335642 -141.667795 65.047505 135.962306 0.000000 0.000000 0.000000 
0.972109 92.115280 -1.725512 0.000000 0.000000 0.000000 5.037229 -54.502300 8.103558 -34.436332 11.243708 20.025888 55.566546 -10.067888 2.676518 -16.942605 -2.660297 -14.968570 -2.312133 -2.332698 0.591874 0.000000 0.000000 0.000000 4.759477 -52.271906 8.621939 -32.228661 -13.244789 -28.082471 54.627809 14.712969 -8.244458 -20.778475 -19.068546 26.016261 2.746479 6.877378 -12.735399 0.000000 0.000000 0.000000 4.174376 -48.425628 6.976525 9.167267 9.660841 -2.262447 -1.007910 1.042302 -0.212420 0.089228 0.396512 0.195481 0.000000 0.000000 0.000000 4.614660 2.582120 0.320760 -5.782135 13.114632 2.163041 -18.668136 27.281270 -11.463786 0.000000 0.000000 0.000000 2.213791 1.673412 -0.513207 3.780646 7.436439 -0.569871 1.231397 -6.663980 1.159107 -13.042373 12.782501 -42.634406 166.414581 -50.986584 165.975864 0.000000 0.000000 0.000000 4.570550 1.869624 -0.257296 -4.280185 3.748581 -19.841117 -2.129280 5.720014 5.149527 -47.696140 18.326832 70.301088 -146.364916 63.697900 140.469848 0.000000 0.000000 0.000000 
1.426982 91.804077 -2.258204 0.000000 0.000000 0.000000 5.530414 -58.104925 8.144843 -30.390698 10.091052 19.811595 56.515642 -8.986519 2.430174 -20.301462 0.900383 -15.274419 -1.994198 -2.119073 0.104690 0.000000 0.000000 0.000000 5.055400 -56.229143 8.667177 -36.089155 -9.694391 -27.817858 55.404148 15.846870 -8.540927 -18.756709 -16.097953 26.856572 2.753630 6.614724 -12.891814 0.000000 0.000000 0.000000 5.739232 -52.158951 6.937932 9.348167 7.920736 -1.249080 -0.907782 0.210517 0.269343 0.112191 0.293670 0.252573 0.000000 0.000000 0.000000 5.184822 1.834748 0.843411 -6.988241 14.051550 2.741442 -17.678649 34.945225 -13.637992 0.000000 0.000000 0.000000 2.819547 0.814208 0.286442 3.324639 5.956398 2.636353 3.182843 -3.814954 0.547324 -19.905555 15.137963 -37.261247 157.089406 -59.263844 157.209371 0.000000 0.000000 0.000000 4.768851 0.966100 -0.229233 -3.872400 5.121169 -18.114975 -1.188214 4.973143 4.164822 -48.291982 20.801076 75.676734 -149.726653 63.649365 143.851529 0.000000 0.000000 0.000000 
1.709784 91.469658 -2.793242 0.000000 0.000000 0.000000 5.192083 -60.028128 7.377056 -27.676587 8.396853 19.866322 57.758860 -8.160075 2.315550 -22.605870 3.343930 -15.376941 -2.479564 -1.848863 -0.412739 0.000000 0.000000 0.000000 4.400890 -58.543710 7.674164 -38.484858 -7.849883 -27.440423 55.845717 16.492846 -8.462323 -17.713447 -13.956060 26.980746 3.244124 6.327030 -12.816317 0.000000 0.000000 0.000000 6.360886 -54.548059 6.054811 9.307834 5.784159 -0.417852 -0.589780 -0.819438 0.608287 0.190169 0.037714 0.270647 0.000000 0.000000 0.000000 5.670192 0.823242 1.329629 -7.950039 15.264510 3.317669 -14.042936 41.741301 -17.383878 0.000000 0.000000 0.000000 4.004885 -0.351737 0.871957 3.020081 3.204859 5.601489 3.544788 0.280308 -0.319773 -28.558023 12.413011 -31.570330 126.847814 -71.393509 127.217724 0.000000 0.000000 0.000000 5.244457 -0.246144 -0.257350 -3.033866 7.018719 -16.652708 -1.098371 3.513558 2.597164 -47.662860 23.833972 79.592980 -153.512149 63.757043 147.944124 0.000000 0.000000 0.000000 
1.818137 91.130226 -3.200876 0.000000 0.000000 0.000000 3.920833 -59.567405 5.828045 -26.808668 6.406965 19.980468 59.098041 -7.853908 2.431443 -23.262472 4.226490 -15.559919 -3.634207 -1.562595 -0.886277 0.000000 0.000000 0.000000 3.039133 -58.695135 5.903869 -38.757458 -7.930092 -27.169326 55.859022 16.300861 -7.976081 -17.820227 -13.232953 26.070812 4.027497 6.073589 -12.428806 0.000000 0.000000 0.000000 5.947509 -55.214969 4.630458 9.056762 3.547837 0.061990 -0.130830 -1.809208 0.640339 0.227123 -0.224853 0.187944 0.000000 0.000000 0.000000 5.980248 -0.252518 1.531710 -8.574780 16.430271 3.958939 -7.902710 46.507458 -22.410662 0.000000 0.000000 0.000000 5.481818 -1.612367 1.114510 2.875333 -0.262651 7.825593 2.350849 4.178513 -1.146269 -35.706733 5.675468 -27.887548 61.894956 -70.088095 61.790481 0.000000 0.000000 0.000000 5.942086 -1.508935 -0.418585 -1.935191 9.080030 -15.532115 -1.965411 1.924441 1.136839 -45.242951 26.863856 80.854352 -157.804718 63.075035 152.949642 0.000000 0.000000 0.000000 
1.803312 90.897293 -3.468008 0.000000 0.000000 0.000000 2.546181 -56.937242 4.333951 -27.706275 4.614090 19.851485 60.032910 -7.834671 2.603446 -22.695549 3.646901 -15.394118 -4.426620 -1.294491 -1.314017 0.000000 0.000000 0.000000 1.694012 -56.559772 4.216651 -36.821806 -9.699346 -27.188024 55.464172 15.346691 -7.236036 -18.657142 -13.898863 24.634249 4.593735 5.950159 -11.808299 0.000000 0.000000 0.000000 4.685503 -53.832310 3.225416 8.662113 1.699155 0.106943 0.364228 -2.449813 0.320441 0.139622 -0.356647 0.056733 0.000000 0.000000 0.000000 6.044383 -1.088327 1.325608 -8.906491 17.150776 4.736912 -0.483820 48.268749 -27.518067 0.000000 0.000000 0.000000 6.838056 -2.617614 0.925943 2.680689 -3.585155 9.012921 0.500266 6.994911 -2.451936 -39.977579 -2.247635 -27.405893 37.697300 -58.219979 36.454861 0.000000 0.000000 0.000000 6.725597 -2.484142 -0.733674 -0.788442 11.222633 -14.897319 -3.386441 0.094625 0.824786 -41.113217 29.663153 78.859117 -161.773959 61.529363 157.990253 0.000000 0.000000 0.000000 
1.652785 90.816292 -3.522829 0.000000 0.000000 0.000000 1.569669 -52.782315 3.526583 -30.059290 3.243984 19.245366 60.277396 -7.959201 2.841890 -21.309458 1.922888 -14.848018 -4.050840 -1.054363 -1.688118 0.000000 0.000000 0.000000 1.047498 -52.462417 3.371205 -33.208069 -12.524555 -27.399510 54.620855 14.147130 -6.585455 -19.887405 -15.450011 23.708490 4.536162 6.024171 -11.182522 0.000000 0.000000 0.000000 2.984402 -50.566889 2.319480 8.252992 0.804314 -0.324969 0.863102 -2.528798 -0.233932 0.071484 -0.393996 -0.078005 0.000000 0.000000 0.000000 5.911733 -1.374007 0.712086 -9.309046 17.189549 5.648504 5.606475 46.816698 -30.588647 0.000000 0.000000 0.000000 7.813640 -3.007596 0.385323 2.108745 -6.031096 8.786485 -0.327731 8.317275 -3.638632 -40.694247 -8.724832 -29.789310 33.789987 -54.193572 31.086093 0.000000 0.000000 0.000000 7.402685 -2.844705 -1.128647 0.192994 13.073412 -14.862702 -5.113581 -1.188662 1.791639 -36.089418 32.010580 73.457701 -164.332439 60.125732 162.020119 0.000000 0.000000 0.000000 
1.480208 90.796623 -3.319830 0.000000 0.000000 0.000000 1.164075 -48.015622 3.544848 -33.342805 2.503903 18.066224 59.805177 -8.192246 3.095802 -19.404344 -0.585402 -14.026385 -2.540893 -0.872238 -1.949576 0.000000 0.000000 0.000000 1.024797 -47.151012 3.334035 -28.817381 -15.808331 -27.806513 53.475221 13.191053 -6.247159 -21.323999 -17.388176 23.917775 3.772325 6.294742 -10.734545 0.000000 0.000000 0.000000 1.277000 -46.011416 2.131283 8.019314 1.293336 -1.072610 1.422488 -1.926474 -0.858728 0.065582 -0.398075 -0.080178 0.000000 0.000000 0.000000 5.715541 -0.908682 -0.080228 -9.962113 16.499524 6.576660 8.346089 42.380262 -30.561429 0.000000 0.000000 0.000000 8.270479 -2.589379 -0.334489 1.052569 -7.341547 7.412359 -0.617063 8.024998 -4.659271 -37.239960 -12.324622 -33.802002 38.973746 -61.091848 35.162695 0.000000 0.000000 0.000000 7.873869 -2.399760 -1.530372 0.914390 14.696986 -15.567244 -6.223469 -1.571209 3.781826 -31.629295 33.562925 65.138025 -164.753807 61.042398 164.212637 0.000000 0.000000 0.000000 
